<?xml version="1.0" encoding="iso-8859-1"?>
<!-- Generator: Adobe Illustrator 19.0.0, SVG Export Plug-In . SVG Version: 6.00 Build 0)  -->
<svg version="1.1" id="Layer_1" xmlns="http://www.w3.org/2000/svg" xmlns:xlink="http://www.w3.org/1999/xlink" x="0px" y="0px"
	 viewBox="0 0 199.526 199.526" style="enable-background:new 0 0 199.526 199.526;" xml:space="preserve">
<g>
	<g>
		<g>
			<path d="M145.949,0H57.27c-2.042,0-3.695,1.653-3.695,3.695v81.308c-0.685,0-1.368,0.171-1.966,0.547
				c-1.075,0.678-1.728,1.858-1.728,3.128v107.153c0,2.042,1.653,3.695,3.695,3.695h92.373c2.042,0,3.695-1.653,3.695-3.695v-62.814
				V3.695C149.643,1.653,147.991,0,145.949,0z M127.473,7.39h14.78v25.864h-14.78V7.39z M127.473,40.644h14.78v22.17h-14.78V40.644z
				 M127.473,70.203h14.78v22.17h-14.78V70.203z M105.304,7.39h14.78v25.864h-14.78V7.39z M105.304,40.644h14.78v22.17h-14.78
				V40.644z M105.304,70.203h14.78v22.169h-14.78V70.203z M105.304,99.763h14.78v16.573l-14.78-7.185V99.763z M83.135,7.39h14.78
				v25.864h-14.78V7.39z M83.135,40.644h14.78v22.169h-14.78V40.644z M83.135,70.203h14.78v22.17h-14.78V70.203z M97.914,99.763
				v5.795l-11.921-5.795H97.914z M60.965,7.39h14.78v25.864h-14.78V7.39z M60.965,40.644h14.78v22.17h-14.78V40.644z M60.965,70.203
				h14.78V94.78l-14.78-7.185V70.203z M142.254,192.136H57.27V94.549l84.983,40.792V192.136z M142.255,127.114l-14.78-7.185
				c0,0,0-20.166,0-20.166h14.78V127.114z"/>
			<path d="M99.762,177.356c13.243,0,24.017-10.774,24.017-24.017s-10.774-24.017-24.017-24.017s-24.017,10.774-24.017,24.017
				S86.52,177.356,99.762,177.356z M99.762,136.712c9.169,0,16.627,7.459,16.627,16.627c0,9.168-7.459,16.627-16.627,16.627
				c-9.168,0-16.627-7.459-16.627-16.627C83.135,144.171,90.593,136.712,99.762,136.712z"/>
		</g>
	</g>
</g>
<g>
</g>
<g>
</g>
<g>
</g>
<g>
</g>
<g>
</g>
<g>
</g>
<g>
</g>
<g>
</g>
<g>
</g>
<g>
</g>
<g>
</g>
<g>
</g>
<g>
</g>
<g>
</g>
<g>
</g>
</svg>
